<?xml version="1.0" standalone="no"?>
<!DOCTYPE svg PUBLIC "-//W3C//DTD SVG 20010904//EN"
 "http://www.w3.org/TR/2001/REC-SVG-20010904/DTD/svg10.dtd">
<svg version="1.0" xmlns="http://www.w3.org/2000/svg"
 width="1280.000000pt" height="640.000000pt" viewBox="0 0 1280.000000 640.000000"
 preserveAspectRatio="xMidYMid meet">
<metadata>
Created by potrace 1.15, written by Peter Selinger 2001-2017
</metadata>
<g transform="translate(0.000000,640.000000) scale(0.100000,-0.100000)"
fill="#000000" stroke="none">
<path d="M2153 5814 c-68 -34 -63 174 -63 -2494 0 -2674 -6 -2461 65 -2494 47
-23 283 -23 330 0 47 22 65 66 65 159 0 71 2 79 29 106 l29 29 159 0 c135 0
161 -3 179 -18 35 -27 44 -56 44 -132 0 -86 18 -126 65 -146 51 -21 2819 -21
2870 0 47 20 65 60 65 146 0 76 9 105 44 132 18 15 44 18 179 18 l159 0 29
-29 c27 -27 29 -35 29 -106 0 -156 31 -178 250 -173 l150 3 32 33 33 32 0
2440 0 2440 -33 32 -32 33 -150 3 c-224 5 -250 -14 -250 -191 0 -89 -2 -96
-27 -121 -36 -36 -49 -38 -213 -34 l-142 3 -29 33 c-28 31 -29 36 -29 128 0
111 -14 148 -65 170 -51 21 -2819 21 -2870 0 -51 -22 -65 -59 -65 -170 0 -92
-1 -97 -29 -128 l-29 -33 -156 -3 -157 -3 -34 34 c-35 35 -35 35 -35 127 0
169 -26 190 -232 190 -100 0 -141 -4 -165 -16z m3317 -459 c60 -31 60 -31 60
-520 0 -376 -2 -451 -15 -475 -33 -64 36 -60 -1022 -60 l-963 0 -32 29 -33 29
0 475 c0 461 1 476 20 497 11 12 29 26 40 31 11 4 447 8 968 8 829 1 952 -1
977 -14z m-2540 -410 c55 -28 60 -46 60 -205 0 -163 -7 -186 -60 -212 -45 -23
-262 -26 -314 -4 -60 25 -66 43 -66 212 0 139 2 153 21 178 32 40 51 45 197
45 99 1 140 -3 162 -14z m3471 -23 l29 -32 0 -153 c0 -216 -11 -227 -220 -227
-206 0 -220 15 -220 230 0 81 5 150 11 161 5 11 25 29 42 40 29 18 47 19 180
17 l149 -3 29 -33z m-3440 -960 l29 -32 0 -146 c0 -153 -9 -192 -49 -214 -11
-6 -88 -10 -176 -10 l-157 0 -29 29 -29 29 0 157 0 157 35 35 34 34 157 -3
156 -3 29 -33z m3419 21 c48 -33 49 -40 50 -206 l0 -159 -29 -29 -29 -29 -157
0 c-88 0 -165 4 -176 10 -40 22 -49 61 -49 213 0 132 2 147 21 171 12 15 31
32 43 36 11 5 84 9 161 9 117 1 145 -2 165 -16z m-891 -154 c12 -11 26 -32 32
-46 12 -32 12 -894 0 -926 -6 -14 -20 -35 -32 -46 l-23 -21 -970 0 c-905 0
-972 2 -992 18 -43 35 -44 42 -44 512 0 470 1 477 44 512 20 16 87 18 992 18
l970 0 23 -21z m-2533 -823 l34 -34 0 -146 c0 -223 -3 -226 -231 -226 l-151 0
-29 29 -29 29 0 159 c1 221 2 222 224 223 l148 0 34 -34z m3417 23 c52 -27 57
-43 57 -212 l0 -159 -29 -29 -29 -29 -152 0 c-227 0 -230 3 -230 226 l0 146
34 34 34 34 147 0 c88 0 155 -4 168 -11z m-895 -705 c52 -36 52 -39 52 -519 0
-490 0 -489 -60 -520 -26 -13 -144 -15 -990 -13 l-960 3 -27 28 -28 27 0 476
0 476 33 29 32 29 963 0 c856 0 965 -2 985 -16z m-2543 -256 c47 -21 55 -53
55 -214 l0 -146 -34 -34 -34 -34 -147 0 c-222 0 -224 3 -225 218 0 86 4 162
10 172 22 41 58 49 207 50 90 0 152 -4 168 -12z m3466 -17 l29 -29 0 -157 c0
-88 -4 -165 -10 -176 -22 -40 -61 -49 -216 -49 l-146 0 -34 34 -34 34 0 152 0
152 34 34 34 34 157 0 157 0 29 -29z"/>
<path d="M7795 5663 c3 -10 31 -90 62 -178 200 -579 226 -660 263 -827 18 -79
20 -126 20 -463 l0 -375 145 0 145 0 0 387 0 388 34 110 c42 133 93 303 136
445 42 141 96 319 125 410 12 41 26 85 30 98 l6 22 -145 0 c-165 0 -144 14
-176 -115 -49 -195 -142 -548 -149 -568 -8 -20 -10 -17 -21 23 -6 25 -36 135
-66 245 -29 110 -63 236 -75 280 -12 44 -24 91 -28 105 l-8 25 -152 3 c-143 2
-153 1 -146 -15z"/>
<path d="M9042 5215 c-76 -17 -134 -49 -183 -102 -91 -99 -109 -196 -109 -601
0 -403 23 -516 122 -613 88 -86 226 -119 358 -85 111 29 172 79 222 184 44 91
50 174 45 576 -3 284 -7 360 -20 397 -47 140 -140 222 -281 248 -71 13 -74 13
-154 -4z m153 -249 c42 -43 46 -83 43 -474 -3 -410 -4 -413 -71 -446 -34 -16
-42 -17 -74 -5 -25 10 -43 26 -57 54 -20 38 -21 57 -24 390 -4 378 1 432 44
478 34 37 103 38 139 3z"/>
<path d="M9702 4573 c3 -575 5 -642 20 -674 36 -76 108 -109 206 -94 71 11
148 57 215 129 l27 30 0 -72 0 -72 130 0 130 0 -2 693 -3 692 -127 3 -128 3 0
-528 c0 -480 -2 -531 -17 -553 -40 -58 -117 -106 -152 -95 -39 12 -41 37 -41
615 l0 560 -131 0 -130 0 3 -637z"/>
<path d="M8645 3569 c-511 -8 -931 -30 -1041 -54 -183 -42 -332 -175 -385
-345 -56 -179 -88 -550 -89 -1020 0 -532 38 -925 106 -1077 54 -123 169 -232
290 -274 273 -96 2265 -120 3104 -38 146 14 195 26 272 66 114 59 198 157 247
288 22 58 54 250 72 435 17 166 17 1033 1 1185 -33 298 -57 425 -95 500 -22
45 -104 155 -115 155 -4 0 -20 11 -35 25 -47 44 -159 91 -244 103 -333 46
-1101 65 -2088 51z m-345 -604 l0 -125 -145 0 -145 0 0 -790 0 -790 -140 0
-140 0 0 790 0 790 -140 0 -140 0 0 125 0 125 425 0 425 0 0 -125z m1210 -170
c0 -162 3 -295 6 -295 3 0 33 25 67 55 114 103 241 113 326 25 72 -74 74 -96
79 -595 4 -547 -3 -609 -82 -689 -83 -83 -224 -63 -339 48 -27 25 -50 46 -53
46 -2 0 -4 -29 -4 -65 l0 -65 -120 0 -120 0 0 915 0 915 120 0 120 0 0 -295z
m1208 -190 c68 -31 135 -97 163 -161 32 -70 49 -208 49 -386 l0 -158 -250 0
-250 0 0 -152 c0 -159 8 -211 38 -245 48 -55 129 -58 180 -6 20 20 31 77 32
161 l0 73 123 -3 122 -3 3 -45 c2 -25 -1 -82 -8 -127 -25 -172 -130 -280 -292
-303 -128 -18 -242 16 -322 96 -102 101 -116 172 -116 596 0 349 8 424 51 511
43 84 139 157 232 177 69 15 183 3 245 -25z m-2128 -549 c0 -500 2 -566 16
-580 34 -35 119 -5 173 61 l31 38 0 522 0 523 120 0 120 0 0 -680 0 -680 -120
0 -120 0 0 75 c0 41 -2 75 -4 75 -3 0 -29 -24 -59 -53 -80 -77 -145 -109 -222
-110 -45 -1 -71 5 -91 18 -87 56 -84 33 -84 741 l0 614 120 0 120 0 0 -564z"/>
<path d="M9562 2399 c-24 -12 -44 -30 -47 -43 -3 -11 -4 -205 -3 -431 l3 -409
34 -23 c75 -50 142 -42 175 22 20 38 21 57 24 415 2 326 1 381 -13 418 -9 23
-26 49 -38 57 -30 21 -85 19 -135 -6z"/>
<path d="M10491 2404 c-43 -30 -61 -89 -61 -201 l0 -103 130 0 130 0 0 83 c0
87 -19 177 -42 200 -39 40 -116 50 -157 21z"/>
</g>
</svg>
